<?xml version="1.0" encoding="UTF-8" standalone="no" ?>
<!DOCTYPE svg PUBLIC "-//W3C//DTD SVG 1.1//EN" "http://www.w3.org/Graphics/SVG/1.1/DTD/svg11.dtd">
<svg xmlns="http://www.w3.org/2000/svg" xmlns:xlink="http://www.w3.org/1999/xlink" version="1.1" width="1080" height="1080" viewBox="0 0 1080 1080" xml:space="preserve">
<desc>Created with Fabric.js 5.2.4</desc>
<defs>
</defs>
<g transform="matrix(1 0 0 1 540 540)" id="639b64a5-5022-49f1-9b21-1d100507850d"  >
<rect style="stroke: none; stroke-width: 1; stroke-dasharray: none; stroke-linecap: butt; stroke-dashoffset: 0; stroke-linejoin: miter; stroke-miterlimit: 4; fill: rgb(255,255,255); fill-rule: nonzero; opacity: 1; visibility: hidden;" vector-effect="non-scaling-stroke"  x="-540" y="-540" rx="0" ry="0" width="1080" height="1080" />
</g>
<g transform="matrix(1 0 0 1 540 540)" id="e8968e31-27ed-40cc-8bfe-647649338439"  >
</g>
<g transform="matrix(8.44 0 0 8.44 540 540)"  >
<path style="stroke: rgb(255,255,255); stroke-width: 1; stroke-dasharray: none; stroke-linecap: butt; stroke-dashoffset: 0; stroke-linejoin: miter; stroke-miterlimit: 4; fill: rgb(255,255,255); fill-rule: nonzero; opacity: 1;" vector-effect="non-scaling-stroke"  transform=" translate(-64.01, -64)" d="M 63.548 27.5 L 54.165000000000006 18.116 C 44.742800275256 8.71615521016394 29.4910581043056 8.713024353999812 20.064999999999998 18.109000000000005 L 18.113000000000007 20.061 C 8.717024353999825 29.487058104305603 8.720155210163941 44.738800275256 18.119999999999997 54.160999999999994 L 27.500000000000007 63.548 C 26.384926246735724 66.08991705111183 26.909307943393344 69.05312739114098 28.829000000000008 71.058 C 31.314000000000007 73.542 34.30200000000001 73.94300000000001 36.77000000000001 72.79 C 40.914864333251984 76.57592131413853 46.7427133070116 77.90845664720453 52.12100000000001 76.30000000000001 L 52.14200000000001 76.32100000000001 L 94.32100000000001 113.537 C 99.71270558409114 118.29563478492591 107.87527128576913 118.04133462105138 112.96030295341026 112.95630295341024 C 118.04533462105138 107.87127128576913 118.2996347849259 99.70870558409113 113.54100000000001 94.31700000000001 L 76.325 52.142 L 76.304 52.121 C 77.91140212899036 46.742016587089374 76.57732704773734 40.91407504687447 72.79 36.77 C 73.91353233931885 34.11733947907169 73.32511214864006 31.048866404189738 71.3 29.000000000000004 C 69.27007918958257 26.953906142085227 66.1946541129406 26.358816150474937 63.54799999999999 27.5 z M 20.948 51.336 C 13.107682124848468 43.475456535984115 13.104551587770729 30.753401071637505 20.94099999999999 22.88900000000001 L 22.892 20.938 C 30.75640107163749 13.101551587770722 43.4784565359841 13.104682124848464 51.339 20.945 L 60.433 30.038 L 30.038 60.43 z M 110.548 96.96600000000001 C 113.91264301544734 100.77395905486067 113.73455252906827 106.5422635305804 110.14140802982432 110.13540802982433 C 106.54826353058039 113.72855252906827 100.77995905486067 113.90664301544734 96.97200000000001 110.542 L 56.109 74.48 C 57.09201344090189 73.85579632771226 58.002895707735405 73.12467580425971 58.825 72.3 L 72.3 58.825 C 73.12397654640213 58.00279082651071 73.85442309980873 57.091912571665766 74.478 56.10900000000001 z M 69.474 56 L 56 69.474 C 51.62892699074194 73.83147850157417 44.66288898833936 74.15567152156916 39.906000000000006 70.223 L 70.223 39.9 C 74.1593385717564 44.6578820327092 73.83507061310648 51.62812787284744 69.474 55.99999999999999 z M 68.229 31.658 C 69.4887703628814 32.92556335834517 69.4887703628814 34.97243664165483 68.229 36.24 L 36.24 68.229 C 34.97243664165483 69.4887703628814 32.92556335834517 69.4887703628814 31.658 68.229 C 30.61987273878407 67.19387946858924 30.61629277626161 65.51353455960773 31.650000000000002 64.474 L 64.474 31.65 C 65.51353455960773 30.616292776261606 67.19387946858924 30.619872738784068 68.229 31.657999999999998 z" stroke-linecap="round" />
</g>
</svg>